<svg xmlns="http://www.w3.org/2000/svg" width="512" height="512" viewBox="0 0 97.8 97.8"><path d="M49 40.5a8.4 8.4 0 0 0 8.3-8.4c0-4.7-3.8-8.4-8.4-8.4a8.4 8.4 0 0 0-8.5 8.5c0 4.6 3.8 8.3 8.5 8.3z" data-original="#000000" class="active-path" data-old_color="#ff8304" fill="#ff8304"/><path d="M48.9 0a48.9 48.9 0 1 0 0 97.8 48.9 48.9 0 0 0 0-97.8zm0 14.9a17.2 17.2 0 1 1-.2 34.4A17.2 17.2 0 0 1 49 15zM68.2 56a20.7 20.7 0 0 1-7.4 4.8 35 35 0 0 1-8.5 1.9l1 1L65 75.5c1.3 1.3 1.6 3 .9 4.5a4.6 4.6 0 0 1-4.4 2.7c-1.1 0-2-.6-2.7-1.4l-9-8.9c-.8-.9-1.2-.7-1.9 0a589.9 589.9 0 0 1-9 9.1c-1.4 1.4-3 1.6-4.6.9a4.6 4.6 0 0 1-2.7-4.3c0-1.2.6-2 1.5-2.9l11.6-11.6.8-1c-5.2-.5-10-1.8-14-5-.6-.4-1.1-.7-1.6-1.2-1.7-1.7-2-3.7-.5-5.7 1.2-1.7 3.2-2.2 5.3-1.2l1.2.7c7.6 5.2 18 5.4 25.6.3a7 7 0 0 1 2.5-1.3 4 4 0 0 1 4.5 1.8c1.1 1.8 1.1 3.5-.3 5z" data-original="#000000" class="active-path" data-old_color="#ff8304" fill="#ff8304"/></svg>