<svg xmlns="http://www.w3.org/2000/svg" viewBox="0 0 512 512"><circle cx="256" cy="256" r="256" fill="#47b0d3"/><path d="M34.1 256A256 256 0 0 1 273.1.6 260 260 0 0 0 256 0a256 256 0 1 0 17 511.4A256 256 0 0 1 34.2 256z" fill="#3298ba"/><path d="M380.3 109a8.5 8.5 0 0 0-8.4-.6l-275.1 128A13.5 13.5 0 0 0 89 249c.1 5.3 3.3 10 8 12l253.7 110.5a13.6 13.6 0 0 0 19-11.4L384 116.6a8.5 8.5 0 0 0-3.7-7.5z" fill="#e5e5e5"/><path fill="#ccc" d="M171.6 293.4L188.8 408l190.4-299.6z"/><path d="M371.9 108.4l-275.1 128a13.6 13.6 0 0 0-7.8 12.4c0 5.2 3.3 10 8 12.1l74.6 32.5 207.6-185a8.5 8.5 0 0 0-7.3 0z" fill="#fff"/><path fill="#e5e5e5" d="M211.4 310.7L188.8 408l190.4-299.6z"/><path d="M380.3 109a8.4 8.4 0 0 0-1.1-.6L211.4 310.7l139.3 60.7a13.6 13.6 0 0 0 19-11.4L384 116.6a8.5 8.5 0 0 0-3.7-7.5z" fill="#fff"/></svg>