<svg xmlns="http://www.w3.org/2000/svg" viewBox="0 0 291.32 291.32"><path d="M145.66 0c80.45 0 145.66 65.22 145.66 145.66S226.1 291.32 145.66 291.32 0 226.1 0 145.66 65.21 0 145.66 0z" fill="#c4302b"/><path d="M142.15 118.36c4.6 0 8.2-1.47 10.85-3.55 2.62-2.1 3.93-4.95 3.93-8.6V84.1a9.7 9.7 0 0 0-4-8c-2.7-2.06-6.12-3.09-10.33-3.09-4.6 0-8.28.98-11 2.93a9.25 9.25 0 0 0-4.1 7.91v22.16c0 3.64 1.34 6.52 4 8.68s6.21 3.66 10.65 3.66zm-4.82-33.42c0-.84.44-1.51 1.3-2.05.88-.52 2-.77 3.39-.77 1.51 0 2.73.25 3.65.77.93.54 1.38 1.21 1.38 2.05v21c0 1.03-.45 1.85-1.36 2.44-.91.58-2.13.88-3.67.88-1.5 0-2.67-.28-3.48-.87a2.85 2.85 0 0 1-1.21-2.46v-21zm35.3 33.39c1.62 0 3.26-.93 4.98-1.86a18.63 18.63 0 0 0 4.96-4.13v4.9h8.6V72.97h-8.6v33.62a12.2 12.2 0 0 1-2.65 2.37c-.98.62-1.78.94-2.4.94-.82 0-1.4-.23-1.75-.7-.37-.47-.57-1.23-.57-2.27V72.97h-8.58v37c0 2.64.52 4.62 1.5 5.93 1.02 1.32 2.51 2.43 4.5 2.43zm25.01 18.3H93.68c-16.54 0-29.93 12.89-29.93 28.76v24.3c0 15.88 13.4 28.76 29.93 28.76h103.96c16.52 0 29.93-12.88 29.93-28.75v-24.31c0-15.87-13.4-28.75-29.93-28.75zm-88.5 24.68h-9.19v38.07h-8.9v-38.07h-9.19v-6.5h27.28v6.5zm27.44 38.6H127v-3.95a20.47 20.47 0 0 1-5.55 3.32c-1.9.78-3.76 1.16-5.56 1.16-2.22 0-3.88-.54-5-1.62-1.12-1.07-1.69-2.67-1.69-4.81v-30.06h9.59v27.58c0 .85.2 1.45.58 1.83.42.4 1.08.57 1.97.57.7 0 1.6-.25 2.68-.76a12.29 12.29 0 0 0 2.98-1.93v-27.3h9.58v35.97zm36.29-6.85c0 2.36-.75 4.15-2.23 5.42-1.47 1.26-3.63 1.88-6.43 1.88-1.86 0-3.52-.23-4.96-.72a12.48 12.48 0 0 1-4.05-2.25v2.55h-9.57v-45.12h9.57v14.54c1.3-1 2.65-1.79 4.06-2.32a12.46 12.46 0 0 1 4.37-.79c3 0 5.28.7 6.86 2.11 1.59 1.42 2.38 3.51 2.38 6.23v18.47zm36.47-10.15h-17.66v6.5c0 1.81.29 3.07.9 3.78.62.7 1.67 1.05 3.13 1.05 1.55 0 2.6-.3 3.23-.9.6-.6.92-1.9.92-3.94v-1.56h9.5v1.76c0 3.53-1.14 6.2-3.49 7.99-2.31 1.78-5.77 2.67-10.37 2.67-4.14 0-7.4-.94-9.77-2.84-2.37-1.87-3.57-4.5-3.57-7.8v-15.5c0-2.98 1.3-5.44 3.93-7.32 2.61-1.88 5.96-2.82 10.1-2.82 4.23 0 7.48.88 9.76 2.62 2.26 1.74 3.4 4.25 3.4 7.5l-.01 8.81zm-105.35-64.45h10.86V91.99l12.65-37.32h-11.04l-6.72 25.5h-.7L102 54.68H91.05l12.94 38.52v25.27zm55.17 53.07l-2.01.33-1.96 1.01v20.74c.77.54 1.52.95 2.25 1.17l2.29.36c1.16 0 2-.23 2.55-.71.54-.47.82-1.23.82-2.28v-17.2c0-1.13-.32-1.98-.99-2.55a4.5 4.5 0 0 0-2.95-.87z" fill="#fff"/><path d="M196.22 170.02c-1.47 0-2.52.31-3.17.95-.63.6-.94 1.65-.94 3.1v3.47h8.16v-3.48c0-1.44-.33-2.47-.97-3.1-.63-.63-1.68-.94-3.08-.94z" fill="#fff"/></svg>